<?xml version="1.0" encoding="iso-8859-1"?>
<!-- Generator: Adobe Illustrator 19.0.0, SVG Export Plug-In . SVG Version: 6.00 Build 0)  -->
<svg xmlns="http://www.w3.org/2000/svg" xmlns:xlink="http://www.w3.org/1999/xlink" version="1.1" id="Layer_1" x="0px" y="0px" viewBox="0 0 512 512" style="enable-background:new 0 0 512 512;" xml:space="preserve" width="512px" height="512px">
<g>
	<g>
		<path d="M328.348,66.783h-25.133C296.323,47.35,277.766,33.391,256,33.391h-19.556C229.553,13.956,210.984,0,189.217,0    s-40.336,13.956-47.226,33.391h-19.556c-21.766,0-40.323,13.959-47.215,33.391H50.087C22.469,66.783,0,89.252,0,116.87v345.043    C0,489.531,22.469,512,50.087,512h278.261c27.618,0,50.087-22.469,50.087-50.087V116.87    C378.435,89.252,355.966,66.783,328.348,66.783z M105.739,83.478c0-9.206,7.49-16.696,16.696-16.696h33.391    c9.22,0,16.696-7.475,16.696-16.696c0-9.206,7.49-16.696,16.696-16.696s16.696,7.49,16.696,16.696    c0,9.22,7.475,16.696,16.696,16.696H256c9.206,0,16.696,7.49,16.696,16.696v16.696H105.739V83.478z M345.043,461.913    c0,9.206-7.49,16.696-16.696,16.696H50.087c-9.206,0-16.696-7.49-16.696-16.696V116.87c0-9.206,7.49-16.696,16.696-16.696h22.261    v16.696c0,9.22,7.475,16.696,16.696,16.696h200.348c9.22,0,16.696-7.475,16.696-16.696v-16.696h22.261    c9.206,0,16.696,7.49,16.696,16.696V461.913z" fill="#4a97d6"/>
	</g>
</g>
<g>
	<g>
		<path d="M461.913,77.913c-27.618,0-50.087,22.469-50.087,50.087v292.639c0,15.3,3.139,18.1,35.154,82.131    c6.136,12.277,23.721,12.294,29.865,0C508.85,438.763,512,435.936,512,420.639V128C512,100.382,489.531,77.913,461.913,77.913z     M478.609,420.639c0,5.222-0.54,5.022-16.696,37.333c-16.128-32.256-16.696-32.094-16.696-37.333v-8.813h33.391V420.639z     M478.609,378.435h-33.391V244.87h33.391V378.435z M478.609,211.478h-33.391V128c0-9.206,7.49-16.696,16.696-16.696    s16.696,7.49,16.696,16.696V211.478z" fill="#4a97d6"/>
	</g>
</g>
<g>
	<g>
		<path d="M195.458,194.107c-6.519-6.519-17.091-6.519-23.611,0l-54.978,54.978l-21.586-21.586c-6.519-6.519-17.091-6.519-23.611,0    s-6.52,17.091,0,23.611l33.392,33.391c6.52,6.52,17.091,6.52,23.611,0l66.783-66.783    C201.978,211.199,201.978,200.627,195.458,194.107z" fill="#4a97d6"/>
	</g>
</g>
<g>
	<g>
		<path d="M195.458,327.672c-6.519-6.519-17.091-6.519-23.611,0L116.87,382.65l-21.586-21.586c-6.519-6.519-17.091-6.519-23.611,0    s-6.52,17.091,0,23.611l33.392,33.391c6.52,6.52,17.091,6.52,23.611,0l66.783-66.783    C201.978,344.764,201.978,334.192,195.458,327.672z" fill="#4a97d6"/>
	</g>
</g>
<g>
	<g>
		<path d="M294.957,189.217h-44.522c-9.22,0-16.696,7.475-16.696,16.696c0,9.22,7.475,16.696,16.696,16.696h44.522    c9.22,0,16.696-7.475,16.696-16.696C311.652,196.693,304.177,189.217,294.957,189.217z" fill="#4a97d6"/>
	</g>
</g>
<g>
	<g>
		<path d="M294.957,256h-77.913c-9.22,0-16.696,7.475-16.696,16.696c0,9.22,7.475,16.696,16.696,16.696h77.913    c9.22,0,16.696-7.475,16.696-16.696C311.652,263.475,304.177,256,294.957,256z" fill="#4a97d6"/>
	</g>
</g>
<g>
	<g>
		<path d="M294.957,322.783h-44.522c-9.22,0-16.696,7.475-16.696,16.696s7.475,16.696,16.696,16.696h44.522    c9.22,0,16.696-7.475,16.696-16.696S304.177,322.783,294.957,322.783z" fill="#4a97d6"/>
	</g>
</g>
<g>
	<g>
		<path d="M294.957,389.565h-77.913c-9.22,0-16.696,7.475-16.696,16.696s7.475,16.696,16.696,16.696h77.913    c9.22,0,16.696-7.475,16.696-16.696S304.177,389.565,294.957,389.565z" fill="#4a97d6"/>
	</g>
</g>
<g>
</g>
<g>
</g>
<g>
</g>
<g>
</g>
<g>
</g>
<g>
</g>
<g>
</g>
<g>
</g>
<g>
</g>
<g>
</g>
<g>
</g>
<g>
</g>
<g>
</g>
<g>
</g>
<g>
</g>
</svg>
